<svg width="949" height="949" viewBox="0 0 949 949" fill="none" xmlns="http://www.w3.org/2000/svg">
<path d="M900 474.5C900 566.45 870.214 655.927 815.102 729.531C759.99 803.135 682.518 856.905 594.286 882.791C506.055 908.677 411.812 905.285 325.67 873.122C239.528 840.96 166.122 781.759 116.444 704.383L147.969 684.143C193.273 754.707 260.215 808.696 338.773 838.026C417.331 867.357 503.277 870.45 583.74 846.844C664.203 823.237 734.854 774.2 785.114 707.077C835.374 639.953 862.537 558.355 862.537 474.5H900Z" fill="#B40EDA"/>
<path d="M54.0859 644.839C43.3938 649.171 31.1679 644.029 27.3103 633.157C-8.32743 532.716 -9.17327 422.969 25.2799 321.688C59.7331 220.406 127.325 133.941 216.817 76.0654C226.504 69.8007 239.33 73.18 245.163 83.1333V83.1333C250.995 93.0866 247.622 105.842 237.962 112.147C157.114 164.92 96.0524 243.36 64.8309 335.142C33.6094 426.923 34.174 526.327 66.071 617.453C69.8823 628.341 64.7779 640.507 54.0859 644.839V644.839Z" fill="#B40EDA"/>
<path d="M34.7262 652.683C-8.06699 547.065 -11.4201 429.574 25.2799 321.688C61.9799 213.801 136.281 122.726 234.602 65.1112L255.723 101.155C166.059 153.698 98.2997 236.754 64.8309 335.142C31.3621 433.53 34.42 540.676 73.4455 636.995L34.7262 652.683Z" fill="#B40EDA"/>
<path d="M245.016 59.1838C292.849 32.7541 344.887 14.7858 398.836 6.07157L410.758 79.8818C365.31 87.223 321.471 102.36 281.176 124.625L245.016 59.1838Z" fill="#B40EDA"/>
<path d="M174.668 818.728C91.9969 746.719 38.0021 647.363 22.5543 538.822C7.10645 430.281 31.2375 319.806 90.5361 227.591L95.6471 230.878C37.1378 321.865 13.328 430.87 28.5702 537.966C43.8124 645.062 97.0885 743.096 178.659 814.146L174.668 818.728Z" fill="#B40EDA"/>
<g filter="url(#filter0_d_4_93)">
<path d="M720.914 90.2184C795.267 137.896 854.192 206.12 890.545 286.619C926.897 367.118 939.115 456.434 925.719 543.739C912.322 631.043 873.885 712.587 815.069 778.482C756.253 844.377 679.583 891.795 594.355 914.985L592.759 909.122C676.853 886.24 752.502 839.454 810.535 774.436C868.569 709.417 906.494 628.96 919.712 542.817C932.931 456.675 920.875 368.547 885.007 289.12C849.138 209.693 790.998 142.377 717.634 95.3336L720.914 90.2184Z" fill="#B40EDA"/>
</g>
<g filter="url(#filter1_d_4_93)">
<path d="M827 475C827 669.957 668.957 828 474 828C279.043 828 121 669.957 121 475C121 280.043 279.043 122 474 122C668.957 122 827 280.043 827 475ZM125.699 475C125.699 667.361 281.639 823.301 474 823.301C666.361 823.301 822.301 667.361 822.301 475C822.301 282.639 666.361 126.699 474 126.699C281.639 126.699 125.699 282.639 125.699 475Z" fill="#B40EDA"/>
</g>
<path d="M826.182 617.117C851.252 555.297 859.584 487.96 850.336 421.893C841.089 355.827 814.589 293.365 773.509 240.804C732.429 188.243 678.219 147.439 616.343 122.505C554.468 97.5707 487.113 89.3877 421.067 98.7805L427.365 143.064C485.626 134.778 545.043 141.997 599.625 163.992C654.208 185.987 702.028 221.982 738.267 268.348C774.505 314.715 797.881 369.814 806.039 428.094C814.196 486.373 806.847 545.774 784.732 600.308L826.182 617.117Z" fill="#B40EDA"/>
<path d="M235.229 179.933C183.448 221.994 143.67 276.96 119.902 339.293C96.1351 401.626 89.2188 469.123 99.8505 534.981C110.482 600.839 138.286 662.731 180.46 714.419C222.635 766.106 277.689 805.764 340.074 829.394L355.918 787.565C300.885 766.72 252.32 731.737 215.117 686.141C177.914 640.545 153.387 585.948 144.008 527.853C134.629 469.757 140.731 410.216 161.697 355.229C182.663 300.243 217.753 251.755 263.43 214.652L235.229 179.933Z" fill="#B40EDA"/>
<defs>
<filter id="filter0_d_4_93" x="588.759" y="90.2184" width="346.241" height="832.767" filterUnits="userSpaceOnUse" color-interpolation-filters="sRGB">
<feFlood flood-opacity="0" result="BackgroundImageFix"/>
<feColorMatrix in="SourceAlpha" type="matrix" values="0 0 0 0 0 0 0 0 0 0 0 0 0 0 0 0 0 0 127 0" result="hardAlpha"/>
<feOffset dy="4"/>
<feGaussianBlur stdDeviation="2"/>
<feComposite in2="hardAlpha" operator="out"/>
<feColorMatrix type="matrix" values="0 0 0 0 0 0 0 0 0 0 0 0 0 0 0 0 0 0 0.25 0"/>
<feBlend mode="normal" in2="BackgroundImageFix" result="effect1_dropShadow_4_93"/>
<feBlend mode="normal" in="SourceGraphic" in2="effect1_dropShadow_4_93" result="shape"/>
</filter>
<filter id="filter1_d_4_93" x="117" y="122" width="714" height="714" filterUnits="userSpaceOnUse" color-interpolation-filters="sRGB">
<feFlood flood-opacity="0" result="BackgroundImageFix"/>
<feColorMatrix in="SourceAlpha" type="matrix" values="0 0 0 0 0 0 0 0 0 0 0 0 0 0 0 0 0 0 127 0" result="hardAlpha"/>
<feOffset dy="4"/>
<feGaussianBlur stdDeviation="2"/>
<feComposite in2="hardAlpha" operator="out"/>
<feColorMatrix type="matrix" values="0 0 0 0 0 0 0 0 0 0 0 0 0 0 0 0 0 0 0.25 0"/>
<feBlend mode="normal" in2="BackgroundImageFix" result="effect1_dropShadow_4_93"/>
<feBlend mode="normal" in="SourceGraphic" in2="effect1_dropShadow_4_93" result="shape"/>
</filter>
</defs>
</svg>
