<?xml version="1.0" encoding="UTF-8"?>
<svg id="katman_2" data-name="katman 2" xmlns="http://www.w3.org/2000/svg" viewBox="0 0 136.01 124.98">
  <defs>
    <style>
      .cls-1 {
        fill: #1d1d1b;
      }
    </style>
  </defs>
  <g id="_Слой_1" data-name="Слой 1">
    <path class="cls-1" d="M130.35,91.21c-5.23-5.27-12.25-6.92-18.58-5.47-5.66,1.3-11.59.63-16.41-2.61l-10.93-7.37c-6.15-4.13-9.83-11.07-9.83-18.5v-6.75c0-6.11,2.47-11.97,6.92-16.14,4.78-4.47,7.35-11.27,5.89-18.6-1.51-7.59-7.59-13.75-15.13-15.33-12.8-2.68-24.07,7.05-24.07,19.43,0,5.77,2.45,10.95,6.37,14.58,4.61,4.27,6.85,10.53,6.85,16.82v6c0,7.43-3.68,14.36-9.83,18.5l-10.93,7.36c-4.83,3.25-10.76,3.92-16.43,2.62-6.33-1.45-13.35.2-18.58,5.48-5.44,5.48-7.16,13.98-4.26,21.15,4.91,12.16,19.25,16.13,29.49,9.23,4.77-3.21,7.7-8.15,8.52-13.43.96-6.21,4.89-11.57,10.1-15.08l6.13-4.13c7.49-5.04,17.27-5.04,24.75,0l6.13,4.13c5.2,3.51,9.14,8.87,10.1,15.08.81,5.28,3.74,10.22,8.51,13.43,10.24,6.9,24.59,2.93,29.49-9.24,2.89-7.17,1.17-15.67-4.27-21.15Z"/>
  </g>
</svg>